<svg width="20" height="20" viewBox="0 0 20 20" fill="none" xmlns="http://www.w3.org/2000/svg">
    <path
        d="M13.3333 5.00016C13.3333 5.92064 12.5871 6.66683 11.6666 6.66683C10.7461 6.66683 9.99992 5.92064 9.99992 5.00016M13.3333 5.00016C13.3333 4.07969 12.5871 3.3335 11.6666 3.3335C10.7461 3.3335 9.99992 4.07969 9.99992 5.00016M13.3333 5.00016H16.6666M9.99992 5.00016H3.33325M8.33325 10.0002C8.33325 10.9206 7.58706 11.6668 6.66659 11.6668C5.74611 11.6668 4.99992 10.9206 4.99992 10.0002M8.33325 10.0002C8.33325 9.07969 7.58706 8.3335 6.66659 8.3335C5.74611 8.3335 4.99992 9.07969 4.99992 10.0002M8.33325 10.0002H16.6666M4.99992 10.0002H3.33325M15.8333 15.0002C15.8333 15.9206 15.0871 16.6668 14.1666 16.6668C13.2461 16.6668 12.4999 15.9206 12.4999 15.0002M15.8333 15.0002C15.8333 14.0797 15.0871 13.3335 14.1666 13.3335C13.2461 13.3335 12.4999 14.0797 12.4999 15.0002M15.8333 15.0002H16.6666M12.4999 15.0002H3.33325"
        stroke="currentColor" stroke-width="1.5" stroke-linecap="round" stroke-linejoin="round" />
</svg>