<svg width="18" height="18" viewBox="0 0 18 18" fill="none" xmlns="http://www.w3.org/2000/svg">
<circle cx="9" cy="9" r="9" fill="#D51057"/>
<path d="M10.7025 13.0001L9.01048 10.0841H7.75048V13.0001H6.09448V4.6001H9.45448C10.2305 4.6001 10.8905 4.8721 11.4345 5.4161C11.9785 5.9601 12.2505 6.6161 12.2505 7.3841C12.2505 7.9041 12.1025 8.3881 11.8065 8.8361C11.5105 9.2761 11.1185 9.6081 10.6305 9.8321L12.4905 13.0001H10.7025ZM7.75048 6.1481V8.6321H9.45448C9.76648 8.6321 10.0345 8.5121 10.2585 8.2721C10.4825 8.0241 10.5945 7.7281 10.5945 7.3841C10.5945 7.0401 10.4825 6.7481 10.2585 6.5081C10.0345 6.2681 9.76648 6.1481 9.45448 6.1481H7.75048Z" fill="white"/>
</svg>
